<svg width="149" height="49" viewBox="0 0 149 49" fill="none" xmlns="http://www.w3.org/2000/svg">
<path d="M56.5854 5.32403H51V3H64.7693V5.32403H59.196V20.0148H56.5854V5.32403Z" fill="#FF9000"/>
<path d="M69.3348 7.75643C70.3952 7.75643 71.3099 7.96114 72.0789 8.37055C72.8479 8.77997 73.4348 9.35796 73.8395 10.1045C74.2443 10.8431 74.4467 11.7061 74.4467 12.6935V20.0148H72.3703L72.2003 18.1363C71.8118 18.8106 71.2492 19.3324 70.5126 19.7017C69.784 20.0629 69.0191 20.2436 68.2177 20.2436C67.3839 20.2436 66.6392 20.091 65.9835 19.786C65.3278 19.4809 64.8138 19.0394 64.4415 18.4614C64.0691 17.8754 63.8829 17.185 63.8829 16.3903C63.8829 15.17 64.32 14.287 65.1943 13.7411C66.0685 13.1952 67.2666 12.9223 68.7884 12.9223H72.1639C72.1477 12.2078 72.0506 11.6378 71.8725 11.2124C71.6944 10.7789 71.403 10.4578 70.9983 10.249C70.6016 10.0403 70.0512 9.93596 69.3469 9.93596C68.6589 9.93596 68.0558 10.0965 67.5377 10.4176C67.0278 10.7387 66.6068 11.1722 66.2749 11.7181L64.3565 10.3454C64.9717 9.50246 65.6759 8.86024 66.4692 8.41872C67.2706 7.97719 68.2258 7.75643 69.3348 7.75643ZM68.7155 18.1242C69.3469 18.1242 69.9055 17.9878 70.3912 17.7148C70.8849 17.4419 71.2816 17.0766 71.5811 16.619C71.8806 16.1615 72.0749 15.6557 72.1639 15.1018V14.7285H68.9341C68.1246 14.7285 67.5094 14.8891 67.0885 15.2102C66.6675 15.5233 66.4571 15.9407 66.4571 16.4625C66.4571 16.9683 66.6513 17.3737 67.0399 17.6787C67.4284 17.9757 67.987 18.1242 68.7155 18.1242Z" fill="#FF9000"/>
<path d="M80.2749 20.2436C79.4816 20.2436 78.8745 20.0389 78.4536 19.6294C78.0408 19.212 77.8343 18.5256 77.8343 17.5703V3H80.3356V16.896C80.3356 17.2573 80.4206 17.5342 80.5906 17.7269C80.7606 17.9115 81.0399 18.0038 81.4284 18.0038C81.6308 18.0038 81.9222 17.9757 82.3027 17.9195L82.3148 20.0148C81.562 20.1673 80.882 20.2436 80.2749 20.2436Z" fill="#FF9000"/>
<path d="M89.7216 20.2436C88.4345 20.2436 87.3417 19.9666 86.4432 19.4127C85.5447 18.8508 84.8687 18.1002 84.4154 17.1609C83.9621 16.2217 83.7355 15.1861 83.7355 14.0542C83.7355 12.9383 83.95 11.9028 84.379 10.9475C84.8161 9.98413 85.4678 9.21346 86.3339 8.63547C87.2082 8.04944 88.2686 7.75643 89.5152 7.75643C90.8184 7.75643 91.8789 8.05346 92.6964 8.64751C93.5221 9.23353 94.113 9.9761 94.4692 10.8752C94.8335 11.7743 95.0156 12.7015 95.0156 13.6568C95.0156 13.8816 95.0035 14.1024 94.9792 14.3191C94.963 14.5359 94.9428 14.6884 94.9185 14.7767H86.3825C86.4958 15.7882 86.8277 16.5749 87.3781 17.1368C87.9367 17.6988 88.7219 17.9797 89.7337 17.9797C90.357 17.9797 90.9196 17.8754 91.4215 17.6667C91.9315 17.4579 92.4131 17.1087 92.8664 16.619L94.5906 18.1242C93.9188 18.8467 93.1862 19.3806 92.3929 19.7258C91.6077 20.071 90.7173 20.2436 89.7216 20.2436ZM92.5386 12.9704C92.5548 12.7055 92.5305 12.4527 92.4657 12.2118C92.3362 11.5054 92.0124 10.9354 91.4944 10.5019C90.9763 10.0684 90.3085 9.85167 89.4909 9.85167C88.5843 9.85167 87.8719 10.1326 87.3539 10.6946C86.8439 11.2565 86.5201 12.0151 86.3825 12.9704H92.5386Z" fill="#FF9000"/>
<path d="M97.7962 7.98522H100.297V9.5988C100.727 8.98869 101.265 8.53111 101.912 8.22605C102.56 7.91297 103.236 7.75643 103.94 7.75643C104.912 7.75643 105.721 7.98121 106.369 8.43076C107.024 8.88031 107.506 9.47437 107.814 10.2129C108.121 10.9515 108.279 11.7663 108.287 12.6574V20.0148H105.786V13.0307C105.786 12.1235 105.563 11.401 105.118 10.8632C104.681 10.3253 104.053 10.0564 103.236 10.0564C102.313 10.0564 101.593 10.3253 101.075 10.8632C100.557 11.401 100.297 12.1998 100.297 13.2594V20.0148H97.7962V7.98522Z" fill="#FF9000"/>
<path d="M115.84 20.2436C114.698 20.2436 113.808 19.9265 113.168 19.2923C112.537 18.6581 112.221 17.7831 112.221 16.6672V10.0805H110.23V7.98522H112.258V4.83032L114.722 3.04817V7.98522H117.879V10.0805H114.722V16.2458C114.722 16.888 114.856 17.3496 115.123 17.6305C115.39 17.9035 115.775 18.04 116.277 18.04C116.762 18.04 117.293 17.9115 117.867 17.6546L117.879 19.9064C117.637 19.9947 117.329 20.071 116.957 20.1352C116.584 20.2074 116.212 20.2436 115.84 20.2436Z" fill="#FF9000"/>
<path d="M127.229 20.2436C125.068 20.2436 123.457 19.6495 122.396 18.4614C121.344 17.2733 120.818 15.6076 120.818 13.4641V3H123.428V13.1752C123.428 14.1866 123.546 15.0255 123.781 15.6918C124.023 16.3581 124.424 16.8679 124.983 17.2211C125.541 17.5663 126.29 17.7389 127.229 17.7389C128.176 17.7389 128.929 17.5663 129.487 17.2211C130.046 16.8679 130.447 16.3581 130.69 15.6918C130.932 15.0175 131.054 14.1706 131.054 13.1511V3H133.664V13.3437C133.664 15.5353 133.13 17.2332 132.062 18.4373C131.001 19.6415 129.39 20.2436 127.229 20.2436Z" fill="#FF9000"/>
<path d="M137.477 7.98522H140.063V9.67105C140.46 9.05291 140.99 8.57927 141.654 8.25014C142.326 7.921 143.046 7.75643 143.815 7.75643C144.884 7.75643 145.811 8.0374 146.596 8.59934C147.381 9.16128 147.976 9.91991 148.381 10.8752C148.794 11.8225 149 12.8661 149 14.006C149 15.146 148.794 16.1936 148.381 17.1489C147.976 18.0962 147.377 18.8508 146.584 19.4127C145.798 19.9666 144.864 20.2436 143.779 20.2436C143.01 20.2436 142.297 20.083 141.642 19.7619C140.986 19.4328 140.46 18.9551 140.063 18.329V25H137.477V7.98522ZM143.196 17.9797C143.908 17.9797 144.507 17.8072 144.993 17.462C145.487 17.1168 145.855 16.6431 146.098 16.0411C146.341 15.439 146.462 14.7606 146.462 14.006C146.462 13.2434 146.341 12.565 146.098 11.971C145.855 11.3769 145.487 10.9113 144.993 10.5742C144.507 10.229 143.908 10.0564 143.196 10.0564C142.484 10.0564 141.873 10.229 141.363 10.5742C140.861 10.9113 140.48 11.3769 140.221 11.971C139.962 12.565 139.833 13.2434 139.833 14.006C139.833 14.7606 139.962 15.439 140.221 16.0411C140.48 16.6431 140.861 17.1168 141.363 17.462C141.873 17.8072 142.484 17.9797 143.196 17.9797Z" fill="#FF9000"/>
<path d="M56.7356 24.2226H58.7489L65.4601 40.7774H62.6292L61.2259 37.0517H54.2951L52.8675 40.7774H50L56.7356 24.2226ZM60.3962 34.8842L57.7605 27.8897L55.1127 34.8842H60.3962Z" fill="white"/>
<path d="M68.2665 31.1116H65.9359V29.0731H68.2787V27.4211C68.2787 26.7103 68.4455 26.0972 68.779 25.5817C69.1126 25.0584 69.564 24.6639 70.1335 24.3983C70.711 24.1328 71.3455 24 72.037 24C72.7284 24 73.4199 24.1562 74.1113 24.4686L73.2816 26.4604C72.9155 26.2573 72.5779 26.1558 72.2688 26.1558C71.8377 26.1558 71.496 26.2807 71.2439 26.5307C70.9917 26.7806 70.8656 27.1594 70.8656 27.6671V29.0731H73.9527V31.1116H70.8656V40.7774H68.2665V31.1116Z" fill="white"/>
<path d="M75.9905 29.0731H78.4431V31.2054C78.6221 30.7055 78.8905 30.2798 79.2484 29.9283C79.6064 29.569 80.0131 29.2996 80.4686 29.1199C80.9323 28.9403 81.4041 28.8504 81.8841 28.8504C82.2827 28.8504 82.665 28.9129 83.0311 29.0379C83.4053 29.1629 83.7266 29.3503 83.995 29.6003L82.848 31.592C82.425 31.3343 81.9776 31.2054 81.5058 31.2054C80.9852 31.2054 80.489 31.3577 80.0172 31.6623C79.5453 31.9669 79.1589 32.4434 78.858 33.0917C78.5651 33.7321 78.4187 34.5327 78.4187 35.4935V40.7774H75.9905V29.0731Z" fill="white"/>
<path d="M85.862 24.2226H88.4976V26.7767H85.862V24.2226ZM85.923 29.0731H88.4366V40.7774H85.923V29.0731Z" fill="white"/>
<path d="M96.9781 41C95.7579 41 94.7126 40.7227 93.8421 40.1682C92.9717 39.6136 92.3169 38.8755 91.8776 37.9538C91.4383 37.0322 91.2187 36.0285 91.2187 34.9428C91.2187 33.8805 91.4343 32.8847 91.8654 31.9552C92.2965 31.0257 92.9432 30.2759 93.8055 29.7057C94.6759 29.1355 95.7253 28.8504 96.9537 28.8504C98.1495 28.8504 99.1948 29.1355 100.09 29.7057C100.984 30.2759 101.656 31.1156 102.103 32.2247L99.7113 33.1151C99.4998 32.4902 99.15 31.9904 98.662 31.6154C98.1739 31.2405 97.6044 31.0531 96.9537 31.0531C96.2378 31.0531 95.6399 31.2366 95.16 31.6037C94.6881 31.963 94.3384 32.4395 94.1106 33.0331C93.8909 33.6189 93.7811 34.2555 93.7811 34.9428C93.7811 35.638 93.8909 36.2784 94.1106 36.8642C94.3384 37.45 94.6881 37.9187 95.16 38.2702C95.6399 38.6216 96.2378 38.7974 96.9537 38.7974C97.6126 38.7974 98.182 38.6138 98.662 38.2467C99.15 37.8796 99.4917 37.3875 99.6869 36.7705L101.981 37.6023C101.582 38.6724 100.944 39.5082 100.065 40.1096C99.1867 40.7032 98.1576 41 96.9781 41Z" fill="white"/>
<path d="M108.863 28.8504C109.929 28.8504 110.848 29.0496 111.621 29.448C112.393 29.8463 112.983 30.4087 113.39 31.1351C113.797 31.8537 114 32.6933 114 33.654V40.7774H111.913L111.743 38.9497C111.352 39.6058 110.787 40.1135 110.047 40.4728C109.314 40.8243 108.546 41 107.74 41C106.902 41 106.154 40.8516 105.495 40.5548C104.836 40.258 104.32 39.8284 103.945 39.266C103.571 38.6958 103.384 38.0241 103.384 37.2509C103.384 36.0636 103.823 35.2045 104.702 34.6733C105.581 34.1422 106.784 33.8766 108.314 33.8766H111.706C111.69 33.1815 111.592 32.6269 111.413 32.213C111.234 31.7912 110.941 31.4788 110.535 31.2757C110.136 31.0726 109.583 30.9711 108.875 30.9711C108.184 30.9711 107.578 31.1273 107.057 31.4397C106.545 31.7521 106.122 32.1739 105.788 32.705L103.86 31.3694C104.478 30.5493 105.186 29.9244 105.983 29.4948C106.789 29.0652 107.748 28.8504 108.863 28.8504ZM108.241 38.938C108.875 38.938 109.436 38.8052 109.924 38.5396C110.421 38.2741 110.819 37.9187 111.12 37.4735C111.421 37.0283 111.617 36.5362 111.706 35.9972V35.634H108.46C107.647 35.634 107.029 35.7903 106.606 36.1027C106.183 36.4073 105.971 36.8135 105.971 37.3212C105.971 37.8132 106.166 38.2077 106.557 38.5045C106.947 38.7935 107.508 38.938 108.241 38.938Z" fill="white"/>
<path d="M17.7669 34.6773C17.3073 34.6773 16.8478 34.6773 16.3882 34.6773C16.1761 34.6773 16.0701 34.6013 15.9994 28.0031C15.5398 26.8236 14.9035 25.7962 13.9844 24.9591C13.0653 24.122 11.9695 23.6274 10.7676 23.4752C10.3433 23.3991 9.91915 23.3991 9.49495 23.3991C9.1061 23.3991 8.71725 23.4752 8.3284 23.4752C7.2679 23.5133 6.24274 23.323 5.25294 22.8664C3.20264 21.9532 1.82399 20.2791 0.904893 18.1102C0.480693 17.1209 0.233241 16.0556 0.0918413 14.9521C-0.0142088 14.0009 -0.0142077 13.0116 0.0211423 12.0223C0.162542 9.73936 0.904889 7.68469 2.07144 5.78221C3.23799 3.91779 4.72269 2.43386 6.59625 1.40653C7.6214 0.835784 8.7526 0.417241 9.8838 0.188944C10.8383 -0.00130339 11.8281 -0.0393528 12.7825 0.0367461C14.7621 0.188944 16.671 0.683587 18.4739 1.55872C18.7567 1.67287 19.0041 1.86312 19.2516 2.05337C19.3223 2.09142 19.3576 2.20556 19.393 2.28166C19.3223 2.31971 19.2162 2.43386 19.1455 2.43386C19.0041 2.43386 18.8627 2.39581 18.7213 2.35776C18.3678 2.20556 18.0143 2.01532 17.6608 1.90117C17.0245 1.63482 16.3175 1.52067 15.6459 1.44458C14.2672 1.21628 12.8532 1.21628 11.4392 1.25433C9.9545 1.33043 8.57585 1.74897 7.30325 2.66216C5.78319 3.72754 4.7934 5.21147 4.0864 6.96175C3.5915 8.17933 3.27334 9.43496 3.09659 10.7286C2.77844 12.9355 3.20264 14.9521 4.5106 16.7405C5.39435 17.958 6.5609 18.719 7.93955 19.1756C8.6112 19.4039 9.3182 19.5561 10.0605 19.5942C10.7676 19.6322 11.4746 19.6703 12.1816 19.7844C13.4542 20.0127 14.5854 20.5834 15.6105 21.4205C17.1659 22.6381 18.2264 24.2742 18.8981 26.1767C19.1102 26.7855 19.2516 33.8022 19.4283 34.4491C19.499 34.6774 19.4637 34.7154 19.2516 34.7154C18.7213 34.6774 18.2264 34.6773 17.7669 34.6773Z" fill="#FF9000"/>
<path d="M21.3772 48.7452C21.4162 48.7064 21.4941 48.6675 21.5331 48.6675C23.092 47.8903 24.573 46.9965 25.8981 45.8695C26.9114 45.0145 27.8467 44.043 28.6652 42.9937C29.6395 41.7501 30.4579 40.39 31.1594 38.9521C31.744 37.7473 32.2117 36.5038 32.5235 35.2213C32.7573 34.2109 32.9912 33.2394 33.225 32.229C33.3809 31.5295 33.4199 30.7911 33.5758 30.0916C33.7317 29.1589 33.9265 28.1873 34.1214 27.2547C34.3163 26.322 34.5501 25.3893 34.8229 24.4955C35.2516 23.0187 35.8752 21.5808 36.6157 20.2207C36.8105 19.8321 37.0054 19.4434 36.9274 18.9771C36.8495 18.2387 36.7326 17.9667 36.07 17.7335C35.9141 17.6947 35.7972 17.6558 35.6413 17.5781C34.628 17.2283 33.7706 16.6842 32.9522 16.0625C32.0558 15.3629 31.2764 14.5857 30.4969 13.7696C29.0939 12.254 27.8078 10.6995 26.7555 8.91189C26.3658 8.21237 25.9371 7.51286 25.6253 6.81335C25.3525 6.19156 24.8848 5.95839 24.2612 5.91953C23.6766 5.88066 23.131 5.88066 22.5464 5.88066C21.5331 5.88066 20.5588 5.95839 19.5455 5.95839C18.9609 5.95839 18.3373 5.8418 17.7527 5.72522C17.324 5.64749 16.9343 5.53091 16.5446 5.41432C16.3887 5.37546 16.1938 5.25887 16.0769 5.14229C15.843 4.94798 15.882 4.67595 16.1548 4.55936C16.3887 4.44278 16.6615 4.36505 16.8953 4.36505C17.6358 4.32619 18.3763 4.32619 19.1168 4.32619C20.3639 4.36505 21.5721 4.09302 22.7413 3.66554C23.3259 3.47123 23.8715 3.1992 24.4561 2.96603C25.2745 2.61627 26.015 2.77172 26.6386 3.43237C27.1842 3.97644 27.6129 4.63709 27.9637 5.29774C28.6262 6.50245 29.2108 7.70717 29.8733 8.91189C30.38 9.88343 30.9256 10.855 31.5881 11.7099C31.9779 12.2151 32.4845 12.6038 32.9912 12.9535C33.6927 13.4976 34.4332 14.0028 35.2126 14.3525C36.187 14.8189 37.2003 15.0132 38.2525 14.8577C38.954 14.78 39.6166 14.6246 40.3181 14.508C40.7078 14.4303 41.1365 14.3914 41.5652 14.3914C41.916 14.3914 42.1498 14.5468 42.2667 14.8966C42.3447 15.1686 42.4616 15.4018 42.4616 15.6738C42.4616 15.9459 42.3837 16.2179 42.3057 16.4899C41.9939 17.4226 41.4483 18.161 40.7078 18.8216C39.5776 19.8709 38.6423 21.0756 38.0187 22.4747C37.7459 23.1353 37.4341 23.796 37.2003 24.4955C36.7716 25.7779 36.3428 27.0603 35.9921 28.3428C35.5244 30.0138 35.0957 31.6849 34.628 33.3171C34.3162 34.483 33.9655 35.6877 33.6147 36.8535C33.225 38.136 32.6404 39.3018 31.9389 40.4677C31.2374 41.6335 30.4579 42.7217 29.5226 43.6932C28.5872 44.7036 27.5349 45.6363 26.3658 46.4524C25.4304 47.113 24.4561 47.696 23.4038 48.1623C22.8972 48.3955 22.3515 48.5898 21.8059 48.7452C21.689 48.7841 21.5721 48.7841 21.4552 48.7841C21.3772 48.7841 21.3772 48.7452 21.3772 48.7452Z" fill="white"/>
<path d="M26.5386 45.14C27.4031 45.0353 28.2676 44.8608 29.1321 44.6165C30.5604 44.1978 31.9135 43.5697 33.1163 42.7671C34.0184 42.1738 34.8454 41.441 35.5971 40.6733C36.3113 39.9056 36.9126 39.0332 37.4389 38.1259C37.8523 37.3931 38.1906 36.6254 38.4161 35.8228C38.5665 35.2994 38.6417 34.7759 38.7168 34.2525C38.7544 34.0082 38.792 33.7639 38.8296 33.5546C38.8672 33.3801 38.792 33.3452 38.6041 33.3452C37.9651 33.3801 37.3261 33.415 36.7247 33.415C36.424 33.415 36.1609 33.415 35.8226 33.415C37.4389 31.4608 39.0175 29.5067 40.6338 27.5525C40.9345 27.7968 41.1976 28.041 41.4607 28.2853C41.8742 28.6692 42.25 29.053 42.6259 29.4369C43.3401 30.1697 44.0542 30.9025 44.806 31.6353C45.1442 31.9843 45.5201 32.3332 45.8584 32.6473C45.896 32.6822 45.9712 32.7171 45.9712 32.7869C46.0463 32.9264 45.9712 33.066 45.7832 33.066C45.0691 33.1009 44.3925 33.1358 43.6783 33.1358C43.4904 33.1358 43.4528 33.2405 43.4152 33.3801C43.2649 34.078 43.1145 34.7759 42.8514 35.4738C42.5883 36.1718 42.25 36.8697 41.8742 37.5327C41.4607 38.2655 40.9345 38.9983 40.3707 39.6613C39.2055 41.0223 37.8147 42.1389 36.1985 43.0113C35.0709 43.6395 33.8681 44.1629 32.5901 44.5119C31.6504 44.7561 30.7108 44.9655 29.7711 45.1051C28.9442 45.2098 28.0797 45.2098 27.2151 45.2447C27.0648 45.2098 26.8017 45.1749 26.5386 45.14Z" fill="#FF9000"/>
<path d="M25.4102 44.7359C18.4801 42.3862 19.6351 34.1624 19.0576 28.8757H16.17C15.0155 41.5811 22.3302 45.9107 25.4102 44.7359Z" fill="#FF9000"/>
</svg>
